<svg xmlns="http://www.w3.org/2000/svg" style="display: none;">
    <symbol id="usa-da-icon-loading-spinner" viewBox="0 0 66 66">
      <animateTransform attributeName="transform" type="rotate" values="0 33 33;270 33 33" begin="0s" dur="1.4s" fill="freeze" repeatCount="indefinite"/>
      <circle fill="none" stroke-width="6" stroke-linecap="round" cx="33" cy="33" r="30" stroke-dasharray="187" stroke-dashoffset="610">
        <animate attributeName="stroke" values="#f4c744" begin="0s" dur="5.6s" fill="freeze" repeatCount="indefinite"/>
        <animateTransform attributeName="transform" type="rotate" values="0 33 33;135 33 33;450 33 33" begin="0s" dur="1.4s" fill="freeze" repeatCount="indefinite"/>
        <animate attributeName="stroke-dashoffset" values="187;46.75;187" begin="0s" dur="1.4s" fill="freeze" repeatCount="indefinite"/>
      </circle>
 		</symbol>
    <symbol id="usa-da-icon-check-circle" viewBox="0 0 512 512">
        <path d="m403 210c0-6-1-10-5-13l-26-26c-3-4-8-6-13-6-5 0-9 2-12 6l-117 116-65-64c-3-4-7-6-12-6-5 0-10 2-13 6l-26 25c-4 4-5 8-5 13 0 6 1 10 5 13l103 104c4 3 8 5 13 5 5 0 10-2 13-5l155-155c4-4 5-8 5-13z m72 46c0 40-9 77-29 110-20 34-46 60-80 80-33 20-70 29-110 29-40 0-77-9-110-29-34-20-60-46-80-80-20-33-29-70-29-110 0-40 9-77 29-110 20-34 46-60 80-80 33-20 70-29 110-29 40 0 77 9 110 29 34 20 60 46 80 80 20 33 29 70 29 110z" />
    </symbol>
    <symbol id="usa-da-icon-exclamation-circle" viewBox="0 0 512 512">
        <path d="m256 37c40 0 77 9 110 29 34 20 60 46 80 80 20 33 29 70 29 110 0 40-9 77-29 110-20 34-46 60-80 80-33 20-70 29-110 29-40 0-77-9-110-29-34-20-60-46-80-80-20-33-29-70-29-110 0-40 9-77 29-110 20-34 46-60 80-80 33-20 70-29 110-29z m37 356l0-54c0-3-1-5-3-7-2-2-4-3-6-3l-55 0c-3 0-5 1-7 3-2 2-3 4-3 7l0 54c0 2 1 5 3 6 2 2 4 3 7 3l55 0c2 0 4-1 6-2 2-2 3-4 3-7z m-1-98l5-178c0-2-1-4-3-5-2-2-4-2-7-2l-62 0c-3 0-5 0-7 2-2 1-3 3-3 5l5 178c0 1 1 3 3 5 1 1 4 2 6 2l53 0c3 0 5-1 7-2 2-2 3-4 3-5z" />
    </symbol>
</svg>
